<mxfile host="app.diagrams.net" modified="2023-10-09T16:46:18.180Z" agent="Mozilla/5.0 (Windows NT 10.0; Win64; x64) AppleWebKit/537.36 (KHTML, like Gecko) Chrome/117.0.0.0 Safari/537.36 Edg/117.0.2045.47" etag="Y9VsS8d4vSFYw0dnfRHD" version="22.0.4" type="github">
  <diagram name="Page-1" id="9MXD3yJbQ86IwgR90sJ_">
    <mxGraphModel dx="1042" dy="535" grid="1" gridSize="10" guides="1" tooltips="1" connect="1" arrows="1" fold="1" page="1" pageScale="1" pageWidth="1400" pageHeight="850" math="0" shadow="0">
      <root>
        <mxCell id="0" />
        <mxCell id="1" parent="0" />
        <mxCell id="UFJ58yG_0o8hw0KITlTF-6" value="" style="edgeStyle=orthogonalEdgeStyle;rounded=0;orthogonalLoop=1;jettySize=auto;html=1;" edge="1" parent="1" source="UFJ58yG_0o8hw0KITlTF-2" target="UFJ58yG_0o8hw0KITlTF-5">
          <mxGeometry relative="1" as="geometry" />
        </mxCell>
        <mxCell id="UFJ58yG_0o8hw0KITlTF-2" value="" style="fontColor=#0066CC;verticalAlign=top;verticalLabelPosition=bottom;labelPosition=center;align=center;html=1;outlineConnect=0;fillColor=#CCCCCC;strokeColor=#6881B3;gradientColor=none;gradientDirection=north;strokeWidth=2;shape=mxgraph.networks.pc;" vertex="1" parent="1">
          <mxGeometry x="470" y="120" width="100" height="100" as="geometry" />
        </mxCell>
        <mxCell id="UFJ58yG_0o8hw0KITlTF-11" value="" style="edgeStyle=orthogonalEdgeStyle;rounded=0;orthogonalLoop=1;jettySize=auto;html=1;" edge="1" parent="1" source="UFJ58yG_0o8hw0KITlTF-3" target="UFJ58yG_0o8hw0KITlTF-5">
          <mxGeometry relative="1" as="geometry" />
        </mxCell>
        <mxCell id="UFJ58yG_0o8hw0KITlTF-3" value="" style="sketch=0;html=1;dashed=0;whitespace=wrap;fillColor=#2875E2;strokeColor=#ffffff;points=[[0.005,0.63,0],[0.1,0.2,0],[0.9,0.2,0],[0.5,0,0],[0.995,0.63,0],[0.72,0.99,0],[0.5,1,0],[0.28,0.99,0]];verticalLabelPosition=bottom;align=center;verticalAlign=top;shape=mxgraph.kubernetes.icon;prIcon=api" vertex="1" parent="1">
          <mxGeometry x="320" y="290" width="60" height="80" as="geometry" />
        </mxCell>
        <mxCell id="UFJ58yG_0o8hw0KITlTF-4" value="" style="image;sketch=0;aspect=fixed;html=1;points=[];align=center;fontSize=12;image=img/lib/mscae/CustomDomain.svg;" vertex="1" parent="1">
          <mxGeometry x="530" y="150" width="50" height="42" as="geometry" />
        </mxCell>
        <mxCell id="UFJ58yG_0o8hw0KITlTF-9" value="" style="edgeStyle=orthogonalEdgeStyle;rounded=0;orthogonalLoop=1;jettySize=auto;html=1;" edge="1" parent="1">
          <mxGeometry relative="1" as="geometry">
            <mxPoint x="560" y="320" as="sourcePoint" />
            <mxPoint x="650" y="320.1" as="targetPoint" />
          </mxGeometry>
        </mxCell>
        <mxCell id="UFJ58yG_0o8hw0KITlTF-5" value="Apps" style="sketch=0;outlineConnect=0;fontColor=#232F3E;gradientColor=none;strokeColor=#000099;fillColor=#ffffff;dashed=0;verticalLabelPosition=bottom;verticalAlign=top;align=center;html=1;fontSize=12;fontStyle=0;aspect=fixed;shape=mxgraph.aws4.resourceIcon;resIcon=mxgraph.aws4.apps;" vertex="1" parent="1">
          <mxGeometry x="480" y="290" width="80" height="80" as="geometry" />
        </mxCell>
        <mxCell id="UFJ58yG_0o8hw0KITlTF-8" value="" style="outlineConnect=0;dashed=0;verticalLabelPosition=bottom;verticalAlign=top;align=center;html=1;shape=mxgraph.aws3.mysql_db_instance;fillColor=#2E73B8;gradientColor=none;" vertex="1" parent="1">
          <mxGeometry x="650" y="297.75" width="60" height="64.5" as="geometry" />
        </mxCell>
        <mxCell id="UFJ58yG_0o8hw0KITlTF-10" value="" style="edgeStyle=orthogonalEdgeStyle;rounded=0;orthogonalLoop=1;jettySize=auto;html=1;" edge="1" parent="1">
          <mxGeometry relative="1" as="geometry">
            <mxPoint x="650" y="340.1" as="sourcePoint" />
            <mxPoint x="560" y="340" as="targetPoint" />
          </mxGeometry>
        </mxCell>
        <mxCell id="UFJ58yG_0o8hw0KITlTF-12" value="" style="edgeStyle=orthogonalEdgeStyle;rounded=0;orthogonalLoop=1;jettySize=auto;html=1;" edge="1" parent="1">
          <mxGeometry relative="1" as="geometry">
            <mxPoint x="480" y="340" as="sourcePoint" />
            <mxPoint x="380" y="340" as="targetPoint" />
          </mxGeometry>
        </mxCell>
        <mxCell id="UFJ58yG_0o8hw0KITlTF-14" value="" style="edgeStyle=orthogonalEdgeStyle;rounded=0;orthogonalLoop=1;jettySize=auto;html=1;" edge="1" parent="1">
          <mxGeometry relative="1" as="geometry">
            <mxPoint x="530" y="290" as="sourcePoint" />
            <mxPoint x="530" y="220" as="targetPoint" />
          </mxGeometry>
        </mxCell>
        <mxCell id="UFJ58yG_0o8hw0KITlTF-16" value="" style="edgeStyle=orthogonalEdgeStyle;rounded=0;orthogonalLoop=1;jettySize=auto;html=1;" edge="1" parent="1" source="UFJ58yG_0o8hw0KITlTF-15" target="UFJ58yG_0o8hw0KITlTF-8">
          <mxGeometry relative="1" as="geometry" />
        </mxCell>
        <mxCell id="UFJ58yG_0o8hw0KITlTF-15" value="" style="sketch=0;pointerEvents=1;shadow=0;dashed=0;html=1;strokeColor=none;labelPosition=center;verticalLabelPosition=bottom;verticalAlign=top;align=center;fillColor=#515151;shape=mxgraph.mscae.system_center.admin_console" vertex="1" parent="1">
          <mxGeometry x="640" y="450" width="50" height="36" as="geometry" />
        </mxCell>
        <mxCell id="UFJ58yG_0o8hw0KITlTF-17" value="&lt;b&gt;Admin Console&lt;/b&gt;" style="text;html=1;strokeColor=none;fillColor=none;align=center;verticalAlign=middle;whiteSpace=wrap;rounded=0;" vertex="1" parent="1">
          <mxGeometry x="625" y="486" width="80" height="30" as="geometry" />
        </mxCell>
        <mxCell id="UFJ58yG_0o8hw0KITlTF-18" value="&lt;b&gt;Optional&lt;br&gt;API&lt;br&gt;&lt;/b&gt;" style="text;html=1;strokeColor=none;fillColor=none;align=center;verticalAlign=middle;whiteSpace=wrap;rounded=0;" vertex="1" parent="1">
          <mxGeometry x="300" y="362.25" width="80" height="30" as="geometry" />
        </mxCell>
        <mxCell id="UFJ58yG_0o8hw0KITlTF-20" value="&lt;b&gt;Users&lt;/b&gt;" style="text;html=1;strokeColor=none;fillColor=none;align=center;verticalAlign=middle;whiteSpace=wrap;rounded=0;" vertex="1" parent="1">
          <mxGeometry x="490" y="90" width="80" height="40" as="geometry" />
        </mxCell>
      </root>
    </mxGraphModel>
  </diagram>
</mxfile>
